<svg xmlns="http://www.w3.org/2000/svg" viewBox="0 0 128 128">
  <defs>
    <linearGradient id="bg" x1="0" y1="0" x2="1" y2="1">
      <stop offset="0%" stop-color="#1a1a2e"/>
      <stop offset="100%" stop-color="#16213e"/>
    </linearGradient>
    <linearGradient id="whale" x1="0" y1="0" x2="0" y2="1">
      <stop offset="0%" stop-color="#0f9bff"/>
      <stop offset="100%" stop-color="#0066cc"/>
    </linearGradient>
  </defs>
  <!-- Background circle -->
  <circle cx="64" cy="64" r="64" fill="url(#bg)"/>
  <!-- Simplified whale shape -->
  <path d="M25 55 Q25 35 50 35 L78 35 Q90 35 95 45 Q100 55 100 55 Q100 55 95 60 Q90 65 95 70 Q100 75 100 75 Q100 85 90 90 L50 90 Q25 90 25 70 Z"
        fill="url(#whale)" opacity="0.9"/>
  <!-- Water spout -->
  <path d="M55 35 Q50 18 55 10 Q58 15 60 10 Q62 18 60 35" fill="none" stroke="#0f9bff" stroke-width="2.5" stroke-linecap="round"/>
  <path d="M65 35 Q68 20 70 12 Q72 18 75 12 Q73 20 72 35" fill="none" stroke="#0f9bff" stroke-width="2" stroke-linecap="round" opacity="0.7"/>
  <!-- Eye -->
  <circle cx="82" cy="48" r="4" fill="white"/>
  <circle cx="83" cy="47" r="2" fill="#1a1a2e"/>
  <!-- Code brackets overlay -->
  <text x="64" y="85" text-anchor="middle" font-family="monospace" font-size="22" font-weight="bold" fill="white" opacity="0.8">&lt;/&gt;</text>
</svg>
